<svg xmlns="http://www.w3.org/2000/svg" id="egypt" width="32.503" height="32.503" viewBox="0 0 32.503 32.503">
    <defs>
        <style>
            .cls-8{fill:#eebc31}
        </style>
    </defs>
    <circle id="Ellipse_1476" cx="16.251" cy="16.251" r="16.251" fill="#fff" transform="translate(.001 .001)"/>
    <path id="Path_11921" fill="#efecec" d="M324.233 157.875H314.22a44.934 44.934 0 0 1 .008 10.773h10.026a16.267 16.267 0 0 0-.021-10.773z" transform="translate(-292.659 -147.042)"/>
    <path id="Path_11922" fill="#c42b27" d="M261.965 11.738h10.013a.111.111 0 0 0-.005-.014A16.261 16.261 0 0 0 258.115.972c2.485 1.364 3.214 5.684 3.85 10.766z" transform="translate(-240.404 -.905)"/>
    <path id="Path_11923" fill="#0b0b0b" d="M258.115 325.7a16.262 16.262 0 0 0 13.869-10.784l.016-.046h-10.026c-.632 5.111-1.361 9.462-3.859 10.83z" transform="translate(-240.404 -293.265)"/>
    <path id="Path_11924" fill="#efefef" d="M0 163.294a16.228 16.228 0 0 0 .907 5.354h21.5a44.937 44.937 0 0 0-.008-10.773H.929A16.218 16.218 0 0 0 0 163.294z" transform="translate(0 -147.042)"/>
    <path id="Path_11925" fill="#cc3434" d="M13.538 10.819l-.005.014H35c-.636-5.083-2.2-9.4-4.687-10.766C29.834.024 29.348 0 28.856 0a16.255 16.255 0 0 0-15.318 10.819z" transform="translate(-12.604)"/>
    <path id="Path_11926" fill="#151515" d="M34.718 314.871h-21.5l.016.046a16.256 16.256 0 0 0 15.328 10.851c.492 0 .979-.024 1.46-.067 2.499-1.369 4.065-5.72 4.696-10.83z" transform="translate(-12.312 -293.265)"/>
    <g id="Group_12837" transform="translate(13.034 12.505)">
        <path id="Path_11927" d="M196.342 189.768a4.392 4.392 0 0 0-.723-.024c-.045.026-.039.1-.059.154.023.048.071.022.119.059.074.071.125.167.237.2-.1.1-.094.3-.237.356.024.233-.127.274-.356.32a13.93 13.93 0 0 1-3.959.083 1.979 1.979 0 0 1-.676-.177.221.221 0 0 1-.059-.2c-.137-.068-.139-.272-.249-.367.153-.052.183-.228.356-.261a.532.532 0 0 0-.036-.166 4.759 4.759 0 0 0-.747.024c.019-.265.025-.566.048-.877.03-.415.026-.9.059-1.316.017-.211.01-.429.024-.64.025-.4.007-.8.036-1.174.031-.4.016-.838.047-1.22s.141-.714.6-.676c.549.046.895.506 1.493.51a1.563 1.563 0 0 0 .4-1.339c-.036-.231-.28-.565-.521-.439-.036-.39.335-.337.58-.213.075-.047.1-.112.178-.13a.892.892 0 0 1 .557.107.768.768 0 0 1 .273.688c0 .166-.037.331-.024.5a1.494 1.494 0 0 0 .3.818c.556.051.965-.444 1.505-.5a.545.545 0 0 1 .522.213 10.354 10.354 0 0 1 .154 1.837c.029.383.012.783.036 1.174.057.881.08 1.768.122 2.676zm-2.667-6.2a3.457 3.457 0 0 0-.047-.96c-.053-.05-.083-.122-.154-.154h-.174c-.089.048-.121.146-.213.166-.219.047-.237-.161-.4-.225-.043-.017-.1-.007-.154-.024-.159-.049-.253-.105-.332.119.29-.017.549.077.616.32-.166-.046-.119.1-.107.2a1.761 1.761 0 0 1-.213 1.15c-.079.128-.18.228-.237.344.172-.032.328-.022.415-.131.116-.145.091-.454.166-.628a1.281 1.281 0 0 1-.284.841c.422-.06.5-.412.533-.841a1.118 1.118 0 0 1-.1.592c.055.068.086.16.166.2a.578.578 0 0 0 .154-.213.9.9 0 0 1-.071-.581c-.005.456.119.782.51.841a1.18 1.18 0 0 1-.261-.853 1.917 1.917 0 0 0 .154.652.843.843 0 0 0 .415.119 1.649 1.649 0 0 1-.382-.934zm-.746-1.079v.047c.028 0 .026.022.059.012a.073.073 0 0 0 .012-.059.058.058 0 0 0-.071.001zm-2.288 1.41a.453.453 0 0 0-.4.5c.115-.04.224-.147.344-.142-.064 1.784-.142 3.406-.213 5.168a1.405 1.405 0 0 0-.308.3h.64c.034-.283.351-.341.616-.261.126-.435.254-.868.368-1.316-.118.072-.178.2-.3.273.043-1.141.1-2.251.142-3.414a1.042 1.042 0 0 0 .77.107 2.366 2.366 0 0 0 .865-.38 1.935 1.935 0 0 0 1.067.4 1.29 1.29 0 0 0 .545-.107c.025 1.162.108 2.3.13 3.4a3.328 3.328 0 0 0-.284-.273c.1.449.241.866.355 1.3.276-.087.581-.012.628.261.209-.008.45.016.639-.012-.075-.132-.259-.17-.308-.308a2.4 2.4 0 0 1-.024-.593c-.065-1.433-.156-3.126-.19-4.563a3.608 3.608 0 0 1 .344.154c-.027-.286-.145-.48-.415-.5-.614-.041-.967.523-1.588.51 0 .075.121.092.107.142a1.8 1.8 0 0 1-.415-.059c-.012.066.108.1.118.177a1.058 1.058 0 0 1-.557-.272 1.1 1.1 0 0 1-.178.225 1.41 1.41 0 0 0-.178-.225.773.773 0 0 1-.545.261c.035-.06.106-.083.118-.166a1.075 1.075 0 0 1-.415.048c.037-.043.1-.059.107-.131-.586.023-.996-.548-1.585-.503zm1.15 1.281a3.037 3.037 0 0 0 1.375 2.738 3.092 3.092 0 0 0 1.34-2.738 2.443 2.443 0 0 1-.972-.178c-.146-.063-.286-.178-.4-.213a2.1 2.1 0 0 1-1.344.392zm.024.865c-.011.576-.1 1.279-.059 1.873a4.031 4.031 0 0 0 .107-1.15 1.56 1.56 0 0 0-.036-.759.056.056 0 0 1-.013.037zm2.632 1.067a1.893 1.893 0 0 0 .118.818c.012-.63-.067-1.286-.071-1.909-.016 0-.016-.015-.036-.012a4.874 4.874 0 0 0-.012 1.104zm-2.442.676c.1-.115.216-.219.308-.344a.916.916 0 0 0-.213-.6c-.039.3-.331.693-.1.944zm1.991-.332c.111.1.207.283.332.332.177-.288-.078-.6-.106-.925-.016 0-.017-.016-.036-.012a.943.943 0 0 0-.191.605zm-1.588.534a3.287 3.287 0 0 0 .3-.38c-.147-.117-.255-.275-.391-.4.025.259.043.534.09.78zm1.2-.368a2 2 0 0 0 .308.368c.024-.257.044-.517.083-.759 0-.015 0-.028-.024-.024a4.062 4.062 0 0 1-.375.415zm-1.636.237c-.015-.076-.055-.127-.071-.2a1.627 1.627 0 0 0-.166.521c-.019.066-.065.12-.059.19.136-.058.191-.2.332-.249a2.953 2.953 0 0 0 .118.308c.11-.053.1-.219.2-.285.054.191.11.38.177.557.126-.107.27-.2.308-.391-.071-.162-.136-.33-.2-.5-.1.066-.157.23-.237.273a1.832 1.832 0 0 0-.083-.569 2.185 2.185 0 0 1-.323.345zm1.968.237c-.086-.088-.146-.2-.237-.284-.034.078-.074.154-.107.237a1.025 1.025 0 0 0-.095.261c-.009.186.2.273.308.391a3.4 3.4 0 0 1 .154-.557c.074.093.107.226.213.285.055-.1.093-.216.142-.32a3.163 3.163 0 0 0 .308.261 4.157 4.157 0 0 0-.213-.723.934.934 0 0 1-.095.213 3.172 3.172 0 0 0-.32-.332 3.77 3.77 0 0 0-.062.572zm-1.209-.45c-.192.137.021.414.1.569.034-.137.065-.276.095-.415-.075-.049-.137-.1-.199-.154zm.664.166a1.422 1.422 0 0 0 .107.4c.066-.14.115-.3.177-.439-.034-.049-.055-.111-.118-.13-.033.085-.137.091-.171.169zm-1.434.355a1.21 1.21 0 0 1-.308.261c-.083.239.088.442.166.628.108-.078.154-.218.261-.3a1.791 1.791 0 0 0 .142.4c.116-.082.183-.275.3-.32a.894.894 0 0 0 .1.367c.042-.227.1-.441.142-.664-.1.02-.165.166-.261.226-.066-.171-.108-.365-.177-.534-.093.065-.106.21-.19.285a1.1 1.1 0 0 0-.18-.349zm2.2.356c-.068-.1-.108-.223-.213-.285-.043.178-.091.351-.13.534-.1-.057-.165-.207-.261-.226a3.085 3.085 0 0 0 .166.676 2.183 2.183 0 0 1 .083-.391c.107.1.162.256.3.332.037-.141.088-.268.13-.4.1.086.148.223.261.3.066-.19.232-.368.166-.616-.123-.078-.215-.188-.332-.273-.073.098-.098.246-.17.349zm-1.291.936c-.061.034-.1.086-.166.119-.025-.029-.1-.126-.118-.083s-.018.108-.036.154c.113.01.337-.033.391.071.16-.022.29.03.415 0 .047-.012.083-.062.13-.071.088-.017.174.016.261 0-.016-.052 0-.131-.036-.166-.078 0-.064.085-.142.083-.041-.054-.114-.076-.154-.13-.045-.33-.074-.677-.142-.984-.027.328.048.655.035 1.007-.064.055-.094.143-.166.19-.027-.079-.135-.12-.154-.225-.052-.29.108-.739.036-.972-.067.32-.082.693-.155 1.007zm-1.518.012a.292.292 0 0 0 .2.047 1.913 1.913 0 0 1 .225-.284 2.754 2.754 0 0 0 .143.367h.08c.064-.078.1-.185.166-.261.042.093.062.207.106.3a.808.808 0 0 0 .213.012.919.919 0 0 0-.012-.735c-.109.1-.173.238-.285.332a1.2 1.2 0 0 0-.154-.4c-.083.094-.157.2-.237.3-.084-.149-.108-.359-.226-.474-.058.27-.138.533-.219.796zm3.141-.332a1.362 1.362 0 0 0-.249-.3c-.07.116-.08.291-.154.4-.091-.1-.173-.276-.284-.32a.935.935 0 0 0 .012.723.717.717 0 0 0 .2-.012c.055-.083.064-.212.118-.3.05.088.1.172.154.261h.095a3.751 3.751 0 0 1 .154-.38 1.74 1.74 0 0 0 .225.308c.066-.017.15-.016.178-.071-.08-.256-.147-.524-.225-.782h-.036c-.055.172-.121.324-.188.473zm-2.9.4a2.431 2.431 0 0 0 .285.047.664.664 0 0 0-.13-.284c-.048.098-.129.141-.159.241zm2.845.047a2.222 2.222 0 0 0 .273-.047c-.009-.072-.1-.158-.154-.225-.079.059-.095.174-.123.276zm-2.383.024c.039.024.12.006.178.012-.023-.069-.018-.163-.083-.19a.6.6 0 0 0-.099.182zm2.027.012h.166a.222.222 0 0 0-.119-.19c-.007.074-.068.141-.051.194zm1.15-.167a8.93 8.93 0 0 1-.984.2 4.92 4.92 0 0 1-.759.024c-.07.075-.034.161.012.237a2.754 2.754 0 0 0 .747-.012c-.013-.251.286-.314.32-.047a3.16 3.16 0 0 0 .747-.19c-.002-.094-.003-.193-.087-.208zm-3.39.178c-.2-.029-.478-.125-.664-.166-.106-.023-.137 0-.177.047v.166a3.9 3.9 0 0 0 .747.178c.022-.268.323-.218.308.047a2.777 2.777 0 0 0 .747.012c.053-.083.087-.144.024-.237a5.469 5.469 0 0 1-.989-.043zm-1.078.142a.5.5 0 0 0 .2-.107c-.005-.058.012-.139-.012-.178a.221.221 0 0 0-.192.289zm4.587-.095a.558.558 0 0 0 .2.095.231.231 0 0 0-.189-.285c-.028.047-.01.133-.016.195zm-3.451.32a.494.494 0 0 1 .095-.071.263.263 0 0 0-.047-.213c-.212-.025-.204.265-.048.284zm2.406-.083c.017.041.072.05.118.083.049-.027.072-.079.107-.118-.009-.256-.307-.15-.231.04zm-2.584-.024c-.316-.01-.634-.232-.913-.095-.009.058-.052.082-.036.165-.134-.014-.288.164-.3.226-.018.135.116.232.189.32a.291.291 0 0 0 .036.189 10.636 10.636 0 0 0 3.9.2c.364-.041.944-.078 1.043-.285v-.142c.131-.035.152-.179.189-.308-.105-.069-.141-.207-.308-.213.033-.048-.023-.091-.024-.142-.148-.126-.324-.034-.533.012-.287.063-.475.063-.546.273-.03-.073-.1-.105-.154-.154a2.463 2.463 0 0 1-.758.012c-.062.1-.2.119-.213.261a.592.592 0 0 1-.083-.285h-.118a.642.642 0 0 1-.1.285c-.009-.144-.15-.157-.2-.261a3.309 3.309 0 0 1-.759 0c-.081.025-.116.1-.177.142-.005-.099-.09-.128-.138-.193zm1.292-.143a.5.5 0 0 0 .083.143c.144.03.157-.072.2-.143a.71.71 0 0 0-.286.006zm-.166.2a.45.45 0 0 0 .178.13c.046-.123.014-.305-.119-.32.008.101-.072.104-.062.197zm.51-.19c-.074.053-.166.25-.048.32.045-.058.126-.08.154-.154-.052-.034-.041-.136-.109-.158z" class="cls-8" transform="translate(-189.953 -182.241)"/>
        <path id="Path_11928" d="M197.443 217.257a3.49 3.49 0 0 1-.4.343c.056-1.618.159-3.28.213-4.954a1.639 1.639 0 0 1 .367.308c-.053 1.446-.123 2.774-.18 4.303z" class="cls-8" transform="translate(-196.554 -210.56)"/>
        <path id="Path_11929" d="M267.971 217.434c-.068.013-.134-.1-.2-.154a1.022 1.022 0 0 1-.213-.189c-.075-1.221-.057-2.509-.154-3.674a3.093 3.093 0 0 1-.024-.6c.037-.144.282-.2.356-.331.088 1.481.15 3.346.235 4.948z" class="cls-8" transform="translate(-262.056 -210.405)"/>
        <path id="Path_11930" d="M204.64 218.352a2.408 2.408 0 0 1 .3.237c-.028.953-.088 2.093-.13 3.046a1.951 1.951 0 0 1-.012.486c-.05.138-.244.212-.332.332.048-1.381.128-2.753.174-4.101z" class="cls-8" transform="translate(-203.466 -215.874)"/>
        <path id="Path_11931" d="M262.279 222.577c-.016.016-.048-.025-.071-.048-.07-.069-.168-.176-.237-.249-.06-1.159-.106-2.369-.154-3.52a1.268 1.268 0 0 1 .273-.249c.069 1.247.129 2.729.189 4.066z" class="cls-8" transform="translate(-256.886 -216.022)"/>
        <path id="Path_11932" d="M220.3 220.959a3.037 3.037 0 0 1-1.245 2.6 3.173 3.173 0 0 1-1.292-2.6 2.229 2.229 0 0 0 1.292-.367 2.046 2.046 0 0 0 1.245.367zm-1.671-.083c-.021.485-.012 1.139-.012 1.672a2.694 2.694 0 0 0 0 .569c.021.076.139.147.2.2a1.353 1.353 0 0 0 .225.178c.116-.091.4-.23.439-.38a2.681 2.681 0 0 0 0-.557v-1.684c-.154-.076-.3-.16-.451-.237-.106.107-.284.143-.401.239z" class="cls-8" transform="translate(-215.856 -217.96)"/>
        <path id="Path_11933" d="M206.542 288.477c.074.025.191.006.2.1-.063.023-.113-.058-.2-.048z" class="cls-8" transform="translate(-205.404 -281.187)"/>
        <path id="Path_11934" d="M263.917 288.612a.8.8 0 0 1-.2.083c-.003-.083.158-.123.2-.083z" class="cls-8" transform="translate(-258.654 -281.298)"/>
        <path id="Path_11935" d="M211.725 290.208a.4.4 0 0 1 .249.083c-.074.003-.233-.016-.249-.083z" class="cls-8" transform="translate(-210.231 -282.8)"/>
        <path id="Path_11936" d="M257.927 290.3a.393.393 0 0 1-.261.071.337.337 0 0 1 .261-.071z" class="cls-8" transform="translate(-253.02 -282.878)"/>
        <path id="Path_11937" d="M248.425 291.844a.591.591 0 0 1-.261 0c.021-.08.236-.073.261 0z" class="cls-8" transform="translate(-244.17 -284.269)"/>
        <path id="Path_11938" d="M221.509 291.882c-.023.088-.19.032-.285.047.007-.106.205-.047.285-.047z" class="cls-8" transform="translate(-219.078 -284.344)"/>
        <path id="Path_11939" d="M227.164 292.246a.451.451 0 0 1-.249.035c.024-.064.185-.057.249-.035z" class="cls-8" transform="translate(-224.379 -284.683)"/>
        <path id="Path_11940" d="M242.717 292.262a2.477 2.477 0 0 1-.249-.036c.045-.041.249-.045.249.036z" class="cls-8" transform="translate(-238.865 -284.652)"/>
        <path id="Path_11941" d="M255.234 294.218c.054 0 .025-.086.083-.083-.008.036.012.043.012.071a.234.234 0 0 1-.213.024c-.093.05-.209.22-.332.095-.085.014-.073.125-.142.154-.095-.075-.176-.038-.32-.024-.043.048-.046.135-.13.142.005-.054.07-.048.071-.106-.013-.038-.081-.022-.107-.048-.022-.1.054-.1.083-.142.054.013.059.075.071.131a.27.27 0 0 0 .107-.024.28.28 0 0 1 .083-.154c0-.066-.043-.155-.036-.19.068.016.035.131.071.178.091-.008.145.021.166.083.092-.035.12-.142.237-.142.052 0 .079.045.13.036.014-.157-.027-.481-.225-.356.009-.062.1-.046.166-.047.124.084.004.413.225.402zm-.415.095c.055.049.192.023.178-.071-.033-.061-.197-.035-.178.07zm-.237.059a.433.433 0 0 0 .083-.024c0-.136-.189-.068-.083.023zm-.107.036c.03 0 .037-.018.059-.024 0-.039.005-.083-.036-.083-.021.02-.054.068-.022.106zm-.285.024c.037.016.054.005.083-.012 0-.028-.021-.035-.012-.071-.048.001-.079.021-.07.082zm.4 0a.051.051 0 0 0 .083-.048c-.033.006-.08.002-.079.047z" class="cls-8" transform="translate(-249.746 -286.157)"/>
        <path id="Path_11942" d="M205.784 294.442v.059c-.017.018-.061.01-.095.012-.01-.042 0-.029-.012-.071a.084.084 0 0 1 .107 0z" class="cls-8" transform="translate(-204.599 -286.725)"/>
        <path id="Path_11943" d="M205.433 296.588c0 .021-.015.025-.012.047-.048 0-.093 0-.095-.047a.112.112 0 0 1 .107 0z" class="cls-8" transform="translate(-204.271 -288.729)"/>
        <path id="Path_11944" d="M242.983 298.155h.047a.092.092 0 0 1 0 .095h-.047a.092.092 0 0 1 0-.095z" class="cls-8" transform="translate(-239.332 -290.201)"/>
        <path id="Path_11945" d="M215.148 298.495c.037.154.063.488-.071.51s-.1-.18-.225-.19a.351.351 0 0 1-.261.024c-.059 0-.05.077-.107.083.076-.079.044-.179.036-.273.064.007.073.069.071.143.034.072.177.024.225 0-.026-.05-.058-.093-.083-.143.073-.019.073-.086.142-.083a.124.124 0 0 1 .024.237c.078.029.087.126.154.166.157-.033.047-.336.095-.474zm-.355.19c0 .045.039.071.083.1.199-.095-.076-.291-.083-.1z" class="cls-8" transform="translate(-212.801 -290.518)"/>
        <path id="Path_11946" d="M225.9 298.495c.038.082-.014.269-.024.38a.985.985 0 0 1 .024-.38z" class="cls-8" transform="translate(-223.4 -290.518)"/>
        <path id="Path_11947" d="M243.967 298.495c.079.079-.014.33.083.391.081-.024.136-.013.154-.083s-.069-.1-.024-.142c.106.005.036.154.024.213a.811.811 0 0 1-.356.024c.006-.061.07-.064.119-.083.044-.102-.026-.237 0-.32z" class="cls-8" transform="translate(-240.15 -290.518)"/>
        <path id="Path_11948" d="M243.127 300.223c.007.069-.143.03-.095-.012.017-.011.094-.024.095.012z" class="cls-8" transform="translate(-239.381 -292.103)"/>
        <path id="Path_11949" d="M250.655 301.279a.646.646 0 0 1 .083-.154c-.033-.066-.163-.128-.072-.213.183.026.097.324-.011.367zm.012-.309c.006.046.025.079.072.083.027-.034-.026-.122-.073-.083z" class="cls-8" transform="translate(-246.47 -292.768)"/>
        <path id="Path_11950" d="M268.5 301.313c0 .069-.085.046-.118.024.018-.067.081-.047.118-.024z" class="cls-8" transform="translate(-263.002 -293.122)"/>
        <path id="Path_11951" d="M227.856 301.434a.527.527 0 0 0 .45.059c.035.033.031.1.06.142a.1.1 0 0 1 .071-.012c-.025-.141.171-.176.166-.024-.036.067-.142.063-.249.06-.049.027-.049.1-.095.13a.139.139 0 0 1-.107-.106 1.867 1.867 0 0 0-.38-.024c-.048.056-.094.172-.166.166.035-.061.1-.087.119-.166-.022-.045-.1-.081-.06-.154.114-.018.058.132.154.13.102-.041.025-.135.037-.201zm.036.2c.064 0 .173 0 .261.012.037.03.042.093.095.107.039-.052.106-.149.048-.225-.131.109-.416-.139-.404.107zm.592-.012c.062.01.084-.018.083-.071-.044-.059-.125.011-.083.072z" class="cls-8" transform="translate(-225.023 -293.255)"/>
        <path id="Path_11952" d="M205.729 302.265c.037-.01.037.018.059.024a.192.192 0 0 1-.024.083c-.064-.009-.064-.072-.035-.107z" class="cls-8" transform="translate(-204.627 -294.027)"/>
        <path id="Path_11953" d="M207.509 302.956c.05.082-.071.126-.107.059.005-.051.042-.069.107-.059z" class="cls-8" transform="translate(-206.205 -294.67)"/>
        <path id="Path_11954" d="M210.092 303.464c-.012 0-.009.015-.012.024H210c-.059-.098.1-.132.092-.024z" class="cls-8" transform="translate(-208.61 -295.084)"/>
        <path id="Path_11955" d="M245.073 305.406c.063 0 .056.1.012.119-.048-.007-.044-.098-.012-.119z" class="cls-8" transform="translate(-241.268 -296.955)"/>
        <path id="Path_11956" d="M246.7 305.645c-.035-.013-.07-.025-.083-.059.038-.114.183-.013.083.059z" class="cls-8" transform="translate(-242.731 -297.074)"/>
        <path id="Path_11957" d="M205.844 294.7h.036c0 .163-.244.443.036.462.046-.029.021-.129.083-.142.007.063-.024.087-.036.13.054.152.327.066.213-.106.133 0 .028.144.012.2a.272.272 0 0 1-.249-.048c-.132-.01-.248-.037-.261-.166.122-.047.144-.187.166-.33z" class="cls-8" transform="translate(-204.599 -286.982)"/>
    </g>
</svg>
