<svg xmlns="http://www.w3.org/2000/svg" width="32.503" height="32.503" viewBox="0 0 32.503 32.503">
    <g transform="translate(0 -.001)">
        <circle cx="16.251" cy="16.251" r="16.251" fill="#fff" transform="translate(.001 .002)"/>
        <path fill="#efecec" d="M324.231 157.873h-10.013a44.934 44.934 0 0 1 .008 10.773h10.026a16.266 16.266 0 0 0-.021-10.773z" transform="translate(-292.657 -147.039)"/>
        <path fill="#429945" d="M261.955 11.738h10.013a.106.106 0 0 0-.005-.014A16.261 16.261 0 0 0 258.105.972c2.488 1.364 3.214 5.684 3.85 10.766z" transform="translate(-240.394 -.904)"/>
        <path fill="#0b0b0b" d="M258.113 325.7a16.262 16.262 0 0 0 13.869-10.784l.016-.046h-10.026c-.631 5.108-1.361 9.459-3.859 10.83z" transform="translate(-240.402 -293.261)"/>
        <path fill="#efefef" d="M0 163.291a16.228 16.228 0 0 0 .907 5.354h21.5a44.936 44.936 0 0 0-.008-10.773H.929A16.218 16.218 0 0 0 0 163.291z" transform="translate(0 -147.038)"/>
        <path fill="#49a948" d="M13.538 10.82l-.005.014H35c-.636-5.083-2.2-9.4-4.687-10.766C29.834.025 29.348 0 28.856 0a16.254 16.254 0 0 0-15.318 10.82z" transform="translate(-12.604)"/>
        <path fill="#151515" d="M34.718 314.867h-21.5l.016.046a16.256 16.256 0 0 0 15.328 10.851c.492 0 .979-.024 1.46-.067 2.499-1.369 4.065-5.72 4.696-10.83z" transform="translate(-12.312 -293.261)"/>
        <path fill="#e73b36" d="M0 33.109a16.255 16.255 0 0 0 10.015 15.009V18.1A16.254 16.254 0 0 0 0 33.109z" transform="translate(0 -16.856)"/>
    </g>
</svg>
