<svg xmlns="http://www.w3.org/2000/svg" width="91.196" height="118.432" viewBox="0 0 91.196 118.432">
    <defs>
        <style>
            .cls-2{fill:#dbc9b3}.cls-4{fill:#884f2f}.cls-7{fill:#dea471}.cls-8{fill:#161015}.cls-9{fill:#3d2f30}.cls-11{fill:#4b2e1d}.cls-12{fill:#d1aa82}.cls-13{fill:#837951}
        </style>
    </defs>
    <g id="dog" transform="translate(.002 -.001)" style="mix-blend-mode:luminosity;isolation:isolate">
        <g id="Слой_16" transform="translate(-.002 .001)">
            <path id="Path_10331" d="M109.037 63.187a18.548 18.548 0 0 1 1.28-4.187 12.578 12.578 0 0 0 1.046-8.6c-.93-3.952-.814-4.3-.814-4.3s-6.625 2.788-7.206 4.649.349 5.23-.349 6.276a16.083 16.083 0 0 0-1.162 2.094z" class="cls-2" transform="translate(-28.292 -12.81)"/>
            <path id="Path_10332" fill="#ededf3" d="M89.8 102.228c.465-1.627 0-3.494.231-6.044s1.627-6.276.465-7.206-2.092-.7-2.092-1.629a14.129 14.129 0 0 0-.7-3.022c-.234-.93.465 0 .7-2.557s-.234-9.066.7-10.228 1.629-6.974.93-8.37S80.5 49.459 80.5 49.459s-3.712-2.092-5.579-3.022-7.44-.69-10.457-.69a123.618 123.618 0 0 1-14.18-1.858c-2.323-.465-3.022.93-3.022.93-1.629-1.4-4.186-2.094-6.278-2.791s-3.254-3.022-3.712-5.348a9.62 9.62 0 0 0-2.092-4.417c-.7-.924-.7-3.494-.7-5.345s-1.162-2.557-1.162-3.256-1.173-2.808-1.638-3.963 1.162-1.393 1.393-3.95-.928-1.629-2.557-4.417-4.88-6.974-6.276-7.9-3.013.465-4.417.231a13.108 13.108 0 0 0-3.664.218l-.52-.437s-2.092-1.162-3.712-.465S8.9 5.983 7.507 6.442a6.161 6.161 0 0 0-3.95 3.712 8.767 8.767 0 0 0-.229 4.2S.532 17.142.3 19s-.231 4.184 1.162 5.345a1.779 1.779 0 0 0 2.557-.234s3.952.93 5.348 1.4a10.625 10.625 0 0 0 6.044 0c2.092-.7 5.361-1.808 5.826-.413s-.712 4.367-3.965 5.062-7.206.93-8.835.465-3.712-.93-4.649 0-.421 2.424 1.205 3.114a33.234 33.234 0 0 0 4.149 1.3s.7 5.813.231 6.743-.472 3.968.69 5.352a6.488 6.488 0 0 1 1.4 2.791 16.529 16.529 0 0 1-.7 4.88c-.7 1.627-3.022 9.3-2.557 13.019s3.007 9.861 3.007 9.861-.45 8.04.247 10.366 3.256 6.044 4.186 10 2.094 4.649 2.094 6.276v4.873l.465.93s-2.326 3.022-2.092 4.649 0 3.256 1.162 3.494a1.08 1.08 0 0 0 1.4-.7 2.014 2.014 0 0 0 1.858.928h1.4a4.081 4.081 0 0 0 2.326.234c1.4-.234 4.417-1.627 3.254-2.788s-.93-1.4-1.162-3.712.275-2.055-.887-3.448a7.457 7.457 0 0 1-2.151-4.708c-.234-2.323-.812-11.626-.581-13.717S21.024 82.986 21 81.069c-.013-2.229-.031-2.031-.031-2.031a32.154 32.154 0 0 0 5.61 4.354c3.035 1.721 11.392 1.629 11.392 1.629a38.423 38.423 0 0 0 0 5.345c.231 1.852-.917 3.59-.683 4.52s.683.362.683.362-.231 6.743.465 7.9a1.832 1.832 0 0 0 1.86.93s-.465 2.557.7 3.022a2.714 2.714 0 0 0 2.092 0s2.557 0 2.791-1.162a16.688 16.688 0 0 1 .465-1.86A6.572 6.572 0 0 0 48.888 102c.93-1.393-.93-5.813-1.627-8.835a29.529 29.529 0 0 1-.465-6.974s6.509-7.9 6.509-9.066l1.162 1.162a5.022 5.022 0 0 0-.7 3.712c.465 2.092 4.883 4.184 7.9 3.952s0 4.184-1.393 6.044-4.883 6.276-6.044 6.741-.93 2.326-.93 2.326l2.323.231s2.559.93 3.256.465 2.326-1.627 2.326-1.627.231 1.162 1.627.7 3.025-3.031 3.025-3.031-.7-2.092-.234-3.254 3.712-11.857 4.883-12.322-3.712-1.858-3.022-3.022 3.712-3.952 4.883-3.022.93 5.114 2.557 6.974 7.206 7.671 7.9 9.531.93 7.671.465 8.835-3.489 3.025-3.489 4.42.7 2.788 1.627 2.788a1.158 1.158 0 0 0 1.162-.7s.234 1.627 1.4 1.627a4.852 4.852 0 0 0 2.557-1.4s-.231.93 1.4.465a5.066 5.066 0 0 0 2.566-1.841s-1.173-3.024-.712-4.651z" transform="translate(-.05 -.765)"/>
            <path id="Path_10333" d="M14.429 2.431A2.291 2.291 0 0 0 11.407.105C8.384.8 8.85 3.359 6.059 3.359S.713 4.988.713 6.614 1.644 9.868.48 10.8s0 2.326 1.164 2.085a12.841 12.841 0 0 0 3.022-1.395l4.417-5.341z" class="cls-4" transform="translate(.002 -.001)"/>
            <path id="Path_10334" fill="#915f48" d="M16.853 3.228s-2.675 3.016-2.906 4.3-1.28 4.184-3.494 4.88-4.411 1.042-4.876 1.166a3.533 3.533 0 0 0-1.042.581L5 12.644a3.928 3.928 0 0 1 0-3.256 6.032 6.032 0 0 1 2.787-2.441 44.666 44.666 0 0 0 3.494-3.022c.705-.814 1.62-2.092 2.55-1.858s1.133.356 1.6.465a7.514 7.514 0 0 1 1.422.696z" transform="translate(-1.259 -.567)"/>
            <path id="Path_10335" fill="#88665d" d="M27.386 3.759a22.205 22.205 0 0 0 .234 3.494c.234.819 2.557 1.511 3.6 3.256s1.75 3.491 2.56 3.836a13.359 13.359 0 0 1 3.494 2.439 28.243 28.243 0 0 1 1.162 3.371 5.966 5.966 0 0 0 1.273-2.33 16.8 16.8 0 0 0 .118-4.767L33.9 3.759l-1.83-.491a3.546 3.546 0 0 0-1.788-.044 19.891 19.891 0 0 1-2.896.535z" transform="translate(-7.608 -.866)"/>
            <path id="Path_10336" d="M20.447 14.15c.24.4 2.441 2.791 4.068 3.256s1.28 1.747 2.21 2.323 3.254 1.28 4.068 2.441 1.747 3.371 2.788 3.371 1.965.465 2.21-.116a52.616 52.616 0 0 0 .229-5.929c.234-.7-1.6-2.295-3.35-3.225a2.85 2.85 0 0 1-1.763-2.471c-.236-.7-3.839-4.415-5.228-5s-2.441 1.976-3.14 2.675-2.439 2.094-2.092 2.675z" class="cls-7" transform="translate(-5.667 -2.423)"/>
            <path id="Path_10337" d="M22.556 14.5c-.1-.406 2.092-2.441 3.494-2.441s2.557 1.86 3.494 2.557a2.128 2.128 0 0 0 1.511.581l-1.4.583a3.524 3.524 0 0 1-2.906 1.511c-1.976 0-2.673-1.629-3.369-1.747s-.708-.582-.824-1.044z" class="cls-8" transform="translate(-6.265 -3.35)"/>
            <path id="Path_10338" d="M4.19 20.247a5.282 5.282 0 0 0-3.253 2.442c-.465 1.164.349 3.254 1.162 3.494s1.747.465 1.86 1.046.231 1.747.231 1.747h.465s-.465-1.858.118-2.323 3.022-.93 3.712-1.86-.115-3.373-1.161-3.954a5.522 5.522 0 0 0-3.133-.592z" class="cls-9" transform="translate(-.221 -5.618)"/>
            <path id="Path_10339" fill="#654d41" d="M5.4 32.336a4.676 4.676 0 0 1 1.511 2.326c.231 1.28-1.747 4.184-1.747 4.184l5.459.814 6.625-.581 4.3-3.837.347-2.557-2.208.111a15.406 15.406 0 0 1-5.579 1.284c-2.788 0-7.437-1.627-7.437-1.627z" transform="translate(-1.434 -8.985)"/>
            <path id="Path_10340" d="M5.192 40.4h1.231a.1.1 0 0 0 .087-.157l-1.421-2.276a.1.1 0 0 0-.188.063l.188 2.27a.1.1 0 0 0 .103.1z" class="cls-2" transform="translate(-1.36 -10.537)"/>
            <path id="Path_10341" d="M11.611 40.584h1.638a.122.122 0 0 0 .122-.1l.277-1.747a.124.124 0 0 0-.207-.109l-1.714 1.614z" class="cls-2" transform="translate(-3.225 -10.723)"/>
            <path id="Path_10342" d="M26.575 12.86a1.64 1.64 0 0 0-1.627 1.965c.231 1.28 1.509 1.627 2.323 1.747s2.092-1.164 2.092-1.164-1.384-2.548-2.788-2.548z" class="cls-11" transform="translate(-6.921 -3.574)"/>
            <path id="Path_10343" d="M74.046 60.475c.347.116 4.9 2.57 6.988 5.361s3.385 4.826 4.417 5c1.4.234 3.173.249 3.712-.116 1.4-.93-.347-4.417-.347-4.417-.945-1.705-4.424-4.472-8.734-5.053s-6.036-.775-6.036-.775z" class="cls-4" transform="translate(-20.572 -16.804)"/>
            <path id="Path_10344" d="M55 100.586s-1.629 5.114-3.256 6.741a13.588 13.588 0 0 0-2.557 4.883s-6.974.231-8.6-.465c0 0 6.741-2.557 7.9-5.114s-1.164-4.876-1.164-4.876z" class="cls-2" transform="translate(-11.275 -27.948)"/>
            <path id="Path_10345" d="M26.688 13.828a.581.581 0 1 1-.581.581.581.581 0 0 1 .581-.581z" class="cls-2" transform="translate(-7.252 -3.843)"/>
            <path id="Path_10346" d="M33.5 2.751s.468-3.022 2.1-2.325 4.417 3.256 5.813 3.256a14.638 14.638 0 0 1 6.512 1.86c1.629 1.164 3.712 2.092 2.557 3.712s-4.186 2.326-6.278 3.712-6.284 1.177-6.284 1.177a20.011 20.011 0 0 1-3.5-6.278 19.879 19.879 0 0 1-.92-5.114z" class="cls-4" transform="translate(-9.307 -.09)"/>
            <path id="Path_10347" d="M26.738 17.379c.015 0 .015-.035 0-.035s-.015.035 0 .035z" class="cls-8" transform="translate(-7.424 -4.82)"/>
            <path id="Path_10348" d="M9.689 25.452a1.228 1.228 0 0 1-1.55-.614c-.308-.454-.509-.8-1.092-.821-.489-.017-.539.738-.493 1.048.085.563.489 1.111 1.092.889.459-.166.437-1.092.083-1.343-.157-.114-.231-.286-.159 0-.076.31-.151.62-.218.93.29-.341.9.561 1.253.635a1.291 1.291 0 0 0 1.157-.485c.046-.055.052-.288-.072-.234z" class="cls-8" transform="translate(-1.815 -6.674)"/>
            <path id="Path_10349" d="M1.42 25.066c-.024-.07.09-.135.142-.159a.349.349 0 0 1 .116-.031.526.526 0 0 1 .083 0 .2.2 0 0 1 .044.031c.026.026.026.017 0-.022v.124c0 .153.02.017 0 0s-.061.275 0 .048l.509-.334c.046 0 .19.2.085.052-.055-.079-.011-.081 0 .026a.552.552 0 0 0-.039-.092c-.024-.061-.046-.186 0 .024-.066-.282-.269-.655-.614-.581s-.452.524-.454.828a1.419 1.419 0 0 0 .721 1.31c.2.1.417-.061.52-.218a1.179 1.179 0 0 0 .12-.8c.011.083.013.09 0 .02s-.015-.148-.026-.218a1.782 1.782 0 0 0-.074-.231.974.974 0 0 0-.242-.356.559.559 0 0 0-.131-.087h-.411a.613.613 0 0 0-.528.843c.1.194.229-.033.181-.17z" class="cls-8" transform="translate(-.326 -6.709)"/>
            <path id="Path_10350" d="M9.826 34.633c.061 0 .059-.138 0-.138s-.057.138 0 .138z" class="cls-9" transform="translate(-2.716 -9.585)"/>
            <path id="Path_10351" d="M8.441 34.511c.71 1.546.258 2.743-.535 4.118-.068.118-.048.581.19.463 1.649-.83 1.563-3.551.515-4.791-.129-.151-.218.1-.17.218z" class="cls-9" transform="translate(-2.186 -9.518)"/>
            <path id="Path_10352" d="M12.389 46.052c-2.782.218-5.088.02-7.424-1.67-.076-.055-.1.1-.055.148a7.953 7.953 0 0 0 7.512 1.729c.072-.026.054-.214-.033-.207z" class="cls-12" transform="translate(-1.356 -12.329)"/>
            <path id="Path_10353" d="M37.684 19.148c.015 0 .015-.035 0-.035s-.015.035 0 .035z" class="cls-13" transform="translate(-10.466 -5.311)"/>
            <path id="Path_10354" d="M33.742 6.7a32.728 32.728 0 0 0 1.483 5.335c.524 1.214 1.31 3.157 2.435 3.948 1.188.834 3.461.4 4.741.015a12.447 12.447 0 0 0 4.883-2.8c.017-.017.02-.111 0-.092a13.486 13.486 0 0 1-4.584 1.7c-1.31.218-3 .683-4.306.238-1.446-.493-2.223-2.548-2.812-3.817a26.608 26.608 0 0 1-1.791-4.586c-.02-.076-.055.024-.046.061z" class="cls-9" transform="translate(-9.373 -1.838)"/>
            <path id="Path_10355" d="M10.642 7.244c.015 0 .015-.035 0-.035s-.015.035 0 .035z" class="cls-9" transform="translate(-2.952 -2.003)"/>
            <path id="Path_10356" d="M8.806 6.833a9.325 9.325 0 0 0 3.378-2.483c1.138-1.221 1.863-2.62 3.738-2.184.205.048.166-.574.079-.655-.989-.991-2.249-.066-2.911.865-1.223 1.724-2.308 3.253-4.326 4.116-.096.041-.072.386.042.341z" class="cls-9" transform="translate(-2.417 -.302)"/>
            <path id="Path_10357" d="M41.2 22.308a13.617 13.617 0 0 1 .487 3.607 18.3 18.3 0 0 1-.7 3.238c-.024.1.035.891.258.587a7.722 7.722 0 0 0 .059-7.667c-.085-.124-.109.2-.1.234z" class="cls-9" transform="translate(-11.384 -6.126)"/>
            <path id="Path_10358" d="M87.916 105.98c.576-.961 2.74-3.031 4.131-3.2l.055-.057-.05-1.529a5.21 5.21 0 0 0-3.441-2.074c-2.323-.349-5.459 1.976-7.787 3.834-1.928 1.542-5.291 1.646-6.385 1.636l.459.456a5.022 5.022 0 0 0-.7 3.712c.465 2.092 4.883 4.184 7.9 3.952s0 4.184-1.393 6.044-4.883 6.276-6.044 6.741-.93 2.326-.93 2.326l2.323.231s2.559.93 3.256.465 2.326-1.627 2.326-1.627.231 1.162 1.627.7 3.022-3.022 3.022-3.022-.7-2.092-.234-3.254 3.712-11.857 4.883-12.322-3.715-1.848-3.018-3.012z" class="cls-2" transform="translate(-20.48 -27.532)"/>
            <path id="Path_10360" d="M86.48 128.29a4.939 4.939 0 0 0 .26-1.345c0-.1-.1-.131-.129-.024-.264 1.24-1.17 2.127-1.2 3.426a5.064 5.064 0 0 0 .552 2.144c-.421.269-.843.542-1.242.843a9.585 9.585 0 0 0-.921.762q-.941 1.387-2.048-.961c0-.041-.033-.118-.072-.061a1.247 1.247 0 0 0-.07.1.085.085 0 0 0-.057.024c-.415.347-.5 1.02-.808 1.47a3.9 3.9 0 0 1-1.688 1.408 1.236 1.236 0 0 1-1.33-.031c-.373-.354-.234-1-.114-1.422a5.948 5.948 0 0 1 1.092-2.061c.017-.024 0-.1-.037-.068a4.37 4.37 0 0 0-1.631 2.492 2.492 2.492 0 0 0 .028.95l-.911-.218a2.374 2.374 0 0 1-.655-.194c-.015-.011-.022-.028-.039-.037h-.011c-.12-.1-.175-.273-.127-.585a3.876 3.876 0 0 1 1.31-2.389c.028-.022.013-.124-.028-.1a3.423 3.423 0 0 0-1.8 2.66c-.011.114-.022.247-.024.382a2.108 2.108 0 0 1-.282.02 3.519 3.519 0 0 1-.9-.157 9.4 9.4 0 0 1 .343-1.723c0-.024-.013-.081-.039-.044a4.559 4.559 0 0 0-.812 1.965.421.421 0 0 0 .181.452 3.276 3.276 0 0 0 1.175.306 2.562 2.562 0 0 0 .67-.02 2.952 2.952 0 0 0 .775.231c.483.122.965.255 1.454.356a.218.218 0 0 0 .218-.059 1.2 1.2 0 0 0 .273.17c1.116.48 2.738-.611 3.5-1.9a1.334 1.334 0 0 0 .6.655 1.144 1.144 0 0 0 1.374-.148 11.912 11.912 0 0 0 1-.994 16.656 16.656 0 0 1 2.136-1.518.483.483 0 0 0 .142-.59 5.19 5.19 0 0 1-.108-4.167z" class="cls-12" transform="translate(-20.302 -35.247)"/>
            <path id="Path_10361" d="M74.809 104.661c0-.022-.022.044-.024.048a.151.151 0 0 0 .02.177.092.092 0 0 0 .059.035.079.079 0 0 0 .081-.017.321.321 0 0 0 .066-.288c-.038-.177-.202-.108-.202.045z" class="cls-13" transform="translate(-20.772 -29.039)"/>
            <path id="Path_10362" d="M118.245 118.24c.356-1.983-.02-4.455-2.382-4.8-.028 0-.028.059 0 .066 3.2.858 1.815 4.762 1.321 6.948a29.918 29.918 0 0 0-.437 5.813 16.062 16.062 0 0 0 .238 4.509c.314 1.221.3 1.636-.814 2.457a2.446 2.446 0 0 1-1.612.644c-1.812-.076-1.293-2.057-.721-3.2.083-.166-.046-.594-.236-.341-.694.919-1.181 2.507-.655 3.47-.24.135-.48.269-.716.406l-.572.328q-.8-.026-.692-.642a3.941 3.941 0 0 1 .1-1.474 8.387 8.387 0 0 1 .323-1.5c.015-.046-.035-.122-.063-.055a8.272 8.272 0 0 0-.793 3.382A2.987 2.987 0 0 1 110 130.5c.024-.042-.011-.194-.068-.127a3.236 3.236 0 0 0-.574 3.182c-.1.02-.194.07-.341.1a1.588 1.588 0 0 1-1.055-.218 1.822 1.822 0 0 1-.821-1.557c.258-1.157 1.408-1.928 2.225-2.808a8.538 8.538 0 0 0 1.642-2.374c.015-.041-.013-.14-.068-.1s-.118.1-.179.148a13.064 13.064 0 0 0-.076-6.3 14.875 14.875 0 0 0-3.952-7.274 33.29 33.29 0 0 1-3.54-3.568 21.736 21.736 0 0 1-2.546-4.972c-1.31-3.345-1.852-6.861-2.727-10.324-.031-.12-.151-.083-.144.033.382 5.359 1.841 11.722 5.19 16.065 1.817 2.354 4.328 3.9 5.787 6.57 1.644 3 2.585 7.206 1.234 10.481-.352.358-.692.734-1.044 1.092a16.331 16.331 0 0 0-1.793 1.791 2.326 2.326 0 0 0-.286 2.823c.063.076.122.085.17.057a2.184 2.184 0 0 0 .437.714c.476.5 1.747.965 2.184.264a3.607 3.607 0 0 0 1.022 1.092.192.192 0 0 0 .231.017c.642.518 1.987-.548 2.588-.913a2.195 2.195 0 0 0 1.092.253 4.3 4.3 0 0 0 3.155-2c.421-.729.118-1.249-.175-2-.725-1.856-.33-4.179-.271-6.149a40.278 40.278 0 0 1 .948-6.258z" class="cls-12" transform="translate(-27.165 -26.182)"/>
            <path id="Path_10363" d="M92.438 102.1c-.4-3.227-3.14-4.164-6.011-3.275-2.443.766-4.267 2.4-6.346 3.806-1.747 1.177-4.293 2.389-6.418 1.48-.015.286-.033.572-.05.858 3.448 1.028 6.232-1.256 8.846-3.173s7.147-4.064 9.416-.4c.17.277.323-.542.192-.753-1.747-2.812-5.26-2.4-7.789-.967-3.367 1.911-6.352 5.708-10.665 4.422-.218-.063-.266.764-.05.856 3.557 1.529 6.968-1.906 9.649-3.671 2.54-1.673 8.272-3.712 8.855 1.039.072.585.419.157.371-.231z" class="cls-12" transform="translate(-20.399 -27.371)"/>
            <path id="Path_10364" d="M40.915 37.832a12.326 12.326 0 0 1 .393 10.8c-.017.037 0 .179.046.107a11.772 11.772 0 0 0-.437-10.933v.026z" class="cls-12" transform="translate(-11.366 -10.505)"/>
            <path id="Path_10365" d="M38.832 50.123C40.669 55.97 37.4 60.49 34.295 65.1c-.052.079.02.264.107.157 3.238-4.013 6.988-9.916 4.49-15.2-.031-.057-.075.009-.06.066z" class="cls-12" transform="translate(-9.522 -13.904)"/>
            <path id="Path_10366" d="M29.73 86.4c-.633 4.426 1.546 9.171 4.8 12.171.338.314.437-.459.312-.655-2.291-3.623-5.693-6.811-5.09-11.5 0-.02-.017-.033-.022 0z" class="cls-2" transform="translate(-8.228 -24.004)"/>
            <path id="Path_10367" d="M80.243 95.073a15.98 15.98 0 0 0 6.2-2.574 15.96 15.96 0 0 1 6.822-2.516c.4-.055.437-.873.063-.991-2.205-.7-4.542.69-6.315 1.869-2.212 1.47-4.195 3.323-6.784 4.105-.037 0-.031.114.013.107z" class="cls-2" transform="translate(-22.283 -24.674)"/>
            <path id="Path_10368" d="M24.556 150.094c-.041 0-.041.1 0 .1s.024-.015.026-.033a.358.358 0 0 0 0-.048.031.031 0 0 0-.026-.015z" class="cls-13" transform="translate(-6.813 -41.704)"/>
            <path id="Path_10370" d="M31.087 125.876v.026s.013-.026 0-.026z" class="cls-13" transform="translate(-8.636 -34.976)"/>
            <path id="Path_10371" d="M36.835 107.486c-4.214.858-8.079-.832-11.15-3.712-1.31-1.216-1.915-2.59-3.575-3.352-2.437-1.116-4.149-2.712-4.623-5.459-.015-.09-.1-.033-.085.039a7.3 7.3 0 0 0 2.819 4.848 18.366 18.366 0 0 0 2.284 1.179 5.022 5.022 0 0 1 1.5 1.345c-.033 0-.068.02-.076.083a14.885 14.885 0 0 0 1.31 7.586c.812 5.042-.035 10.226.437 15.3a14.462 14.462 0 0 0 1.288 5.345c.745 1.446 1.657 2.288 1.834 4.053a6.52 6.52 0 0 0 .177 1.321 5.85 5.85 0 0 0 .707 2.371c.437.727 1.057 1.013.483 2.074a3.458 3.458 0 0 1-1.714 1.092c-1.426.568-2.153.408-2.839-.716a3.324 3.324 0 0 1-.279-.873 3.625 3.625 0 0 1 .328-2.088c.039-.087-.063-.288-.142-.157a4.2 4.2 0 0 0-.288 3.671v.042a2.472 2.472 0 0 1-2.142.341 2.858 2.858 0 0 1-.841-.459 8.668 8.668 0 0 1-.775-1.561 2.889 2.889 0 0 1 .489-2.208c.044-.066-.017-.28-.1-.186a3.085 3.085 0 0 0-.718 2.363 3.93 3.93 0 0 0 .312 1.232 1.5 1.5 0 0 1-1.007.406c-1.02-.079-.832-1.151-.891-1.764-.09-.965-.526-1.9-.111-2.839a9.141 9.141 0 0 0 .985-1.424c.218-.469.419-.941.627-1.415a.151.151 0 0 1 0 .028c.1.491.535.179.469-.218-.033-.192-.055-.386-.081-.579-.3-2.262-.179-4.607-.707-6.819a62.19 62.19 0 0 0-3.077-8.1c-.972-2.463-2.367-4.861-2.935-7.464a44.024 44.024 0 0 1-.5-9.673 7.607 7.607 0 0 0 1.035 1.166c.168.153.249-.218.2-.317-1.092-2.223-2.437-4.162-3.166-6.57a20.67 20.67 0 0 1-.808-8.223c0-.079-.081-.138-.1-.039a21.083 21.083 0 0 0 .382 8.241 18.342 18.342 0 0 0 2.267 5.472 40.479 40.479 0 0 0-.038 8.753 26.939 26.939 0 0 0 2.4 7.066c1.258 2.906 2.535 5.915 3.546 8.914.76 2.251.635 4.684.9 7.042a.358.358 0 0 1 0 .048c.039.33.085.655.142.985-.245.456-.489.915-.74 1.369a12.365 12.365 0 0 1-1.052 1.419.2.2 0 0 0-.033.087 2.784 2.784 0 0 0-.218 1.651c.079.585.242 1.135.282 1.729a4.843 4.843 0 0 0 .109 1.02c.336 1.192 1.553 1.151 2.358.461a.973.973 0 0 0 .186.157 2.6 2.6 0 0 0 3.494.437 1.216 1.216 0 0 0 .793.539c1.391.384 3.208-.561 4.175-1.5.583-.568.766-.921.472-1.668a8.253 8.253 0 0 0-.749-1.111 7.293 7.293 0 0 1-.655-2.413q-.046-.218-.1-.419a10.145 10.145 0 0 0-.057-1.8 4.92 4.92 0 0 0-1.046-2.092c-1.747-2.4-2.046-5.241-2.168-8.119-.188-4.5.14-8.935-.655-13.364v-.02c-.371-2.566-1.373-4.88-1.321-7.527a16.378 16.378 0 0 0 1.28 1.529c2.839 2.762 7.5 5.4 11.495 3.712.106-.078.089-.285-.003-.268zm-22.795-7.112v.017s-.006-.017 0-.017z" class="cls-12" transform="translate(-3.097 -24.202)"/>
            <path id="Path_10372" d="M23.242 131.647c.031.068.079 0 .061-.057-.915-2.382-1.747-4.8-2.592-7.206-.932-2.62-2.057-4.8-1.845-7.667.017-.245-.231-.839-.5-.417-1.179 1.865-.133 4.367.625 6.184 1.295 3.106 2.887 6.087 4.251 9.163z" class="cls-2" transform="translate(-4.955 -32.274)"/>
            <path id="Path_10373" d="M28.351 107.815v.017s.009-.017 0-.017z" class="cls-13" transform="translate(-7.876 -29.957)"/>
            <path id="Path_10374" fill="#916b46" d="M15.152 105.481v.017s.009-.017 0-.017z" transform="translate(-4.208 -29.309)"/>
            <path id="Path_10375" d="M59.991 98.849l-.138.373a3.142 3.142 0 0 0 .924.727c.275.142.279-.426.194-.55-1.225-1.806-2.055-3.354-1.456-5.625.033-.122-.111-.483-.218-.251a5.87 5.87 0 0 0 .122 5.079c.155-.015.308-.028.463-.039s.139.205.109.286z" class="cls-2" transform="translate(-16.33 -25.965)"/>
            <path id="Path_10376" d="M69.426 90.681c-.02-.14-.168-.087-.162.037a25.4 25.4 0 0 1-.133 6.87 13.935 13.935 0 0 1-2.71 5.459c-1.631 2.142-4.249 4.354-5.217 6.988 0-.162.022-.323.033-.483 0-.116-.135-.159-.151-.028-.192 1.529-.705 3.072-.4 4.61a.146.146 0 0 0 .046.087 22.585 22.585 0 0 0 .71 5.241c.312 1.214.784 2.354 1.194 3.535.959 2.754-.362 4.225-2.4 5.625-.026-.041-.055-.083-.081-.129a1.079 1.079 0 0 1-.62-.8v-.489c-.094-.631-.033-1.31-.1-1.952-.017-.153-.2-.247-.218-.039a11.912 11.912 0 0 0-.12 3.075c.111.7.8.823.725 1.6a1.7 1.7 0 0 1-2.133 1.529c-.707-.26-.832-1.4-1.013-2.015-.308-1.035-.524-2.1-.852-3.125-.011-.037-.046 0-.044.02a16.083 16.083 0 0 0 1.055 5.151.928.928 0 0 0 .059.114 2.259 2.259 0 0 1-1.557-.437 4.346 4.346 0 0 1-.948-2.247c-.317-1.116-.712-2.2-1.037-3.315-.015-.052-.061-.02-.05.024.122.572.234 1.566.437 2.62a2.8 2.8 0 0 1-1.125-1.441 13.83 13.83 0 0 1-.116-3.568c-.013-2.14-.068-4.273-.14-6.411a.234.234 0 0 0 .044-.135c-.12-3.19-.513-6.18.745-9.241.987-2.4 3.293-4.075 3.749-6.671.314-.747.566-1.529.839-2.288l.138-.373c.031-.081.013-.3-.116-.286s-.308.024-.463.039a20.606 20.606 0 0 0-4.463.849c-.02 0-.015.057 0 .052a46.327 46.327 0 0 1 4.688-.542 26.866 26.866 0 0 0-1.218 3.144.29.29 0 0 0 0 .133c-.716 1.175-1.664 2.184-2.441 3.323a12.551 12.551 0 0 0-1.769 4.029 15.6 15.6 0 0 0-.142 7.315 7.972 7.972 0 0 1-.376 1.655 5.9 5.9 0 0 0-.454 1.048c-.09.563.563 1.059 1.015 1.3q-.026 2.356 0 4.717a7.267 7.267 0 0 0 .249 2.559c.323.845 1.092 1.013 1.542 1.705.493 2.048 1.417 3.93 3.494 3.044a.168.168 0 0 0 .074-.061 2.088 2.088 0 0 0 1.874-.266 3.384 3.384 0 0 0 1.057-2.7 4.682 4.682 0 0 0 2.948-5.594c-.45-1.747-1.3-3.374-1.725-5.149a26.817 26.817 0 0 1-.681-4.957c.066-.841.124-1.681.183-2.522h.013c1.253-1.439 2.184-3.19 3.433-4.666a40.062 40.062 0 0 0 3.38-4.278c2.207-3.491 2.045-7.359 1.451-11.289zm-17.838 28.533c-.24-.391.039-.873.181-1.28a5.678 5.678 0 0 0 .306-1.371c.02.061.035.122.055.183a.142.142 0 0 0 .068.094q-.035 1.461-.055 2.924a3.577 3.577 0 0 1-.555-.55z" class="cls-12" transform="translate(-14.199 -25.173)"/>
            <path id="Path_10377" d="M19.593 32.81s2.426-.764 3.007.282-.581 3.254-2.092 4.417-3.371 4.3-8.486 3.95-6.394.118-6.974-.116a1.434 1.434 0 0 1-.116-2.443c1.162-.93 4.417-.116 5.929-.116s2.673.581 4.649-.231a14.728 14.728 0 0 0 5.24-3.603c1.734-2.208-1.157-2.14-1.157-2.14z" class="cls-9" transform="translate(-1.194 -9.042)"/>
            <path id="Path_10378" fill="#c77b96" d="M11.935 33.948A17.374 17.374 0 0 1 15.422 40c.93 3.275-.234 6.044 1.627 7.671s5.579 1.4 6.741-1.162-.231-6.974-1.393-8.835l-2.326-3.712s-3.494 1.162-4.649.928-3.487-.942-3.487-.942z" transform="translate(-3.314 -9.433)"/>
            <path id="Path_10379" d="M5.61 32.183a19.519 19.519 0 0 0 8.031 2.129 10.045 10.045 0 0 0 3.533-.352c1.417-.426 4.616-2.69 5.241.092.024.1.148.114.155 0 .179-2.6-3.12-1.478-4.385-.919-4.1 1.808-8.516 0-12.551-1.079-.068-.017-.066.107-.02.133z" class="cls-9" transform="translate(-1.549 -8.906)"/>
            <path id="Path_10380" d="M1.488 32.042a1.775 1.775 0 0 0 1.965 1.1c.629-.14 1.332-.721 1.225-1.415-.013-.083-.083-.173-.175-.142-.2.066-.236.218-.36.386a1.6 1.6 0 0 1-.9.585 1.581 1.581 0 0 1-1.675-.627c-.048-.079-.1.055-.068.107z" class="cls-9" transform="translate(-.412 -8.776)"/>
            <path id="Path_10381" fill="#7e414a" d="M19.709 36.36c-.092-.131-.179.081-.138.168A33.575 33.575 0 0 1 21.69 41.6a42.687 42.687 0 0 1 .943 5.372c.033.218.218.114.218-.052a18.22 18.22 0 0 0-3.142-10.56z" transform="translate(-5.433 -10.092)"/>
            <path id="Path_10382" d="M12.729 52.033c.437 2.339-.81 4.61-.118 6.918.356 1.2 1.068 2.243 1.513 3.406a12.486 12.486 0 0 1 .655 5.708c0 .09.092.162.114.044a11.893 11.893 0 0 0-1.262-7.56 7.336 7.336 0 0 1-.985-3.09 16.936 16.936 0 0 1 .36-2.71 4.983 4.983 0 0 0-.218-2.76c-.026-.061-.072 0-.066.044z" class="cls-12" transform="translate(-3.443 -14.439)"/>
            <path id="Path_10383" d="M4.967 10.566s1.4-2.208 2.791-2.441 2.442-1.278 3.369-1.747.116.814.349 1.511 1.4 2.441-.116 3.712-1.4 1.987-2.906 2.452-3.948 1.28-3.948 1.28a11.253 11.253 0 0 1 .461-4.767z" class="cls-7" transform="translate(-1.229 -1.745)"/>
            <path id="Path_10384" d="M8.52 14.008s-.581-2.673-1.86-2.441c-.142.026-.544.391-.673.437a2.429 2.429 0 0 0-1.31 2.581c.081 1.022.622 1.636.349 1.965l1.627-.812a3.791 3.791 0 0 0 1.867-1.73z" class="cls-8" transform="translate(-1.295 -3.21)"/>
            <path id="Path_10385" d="M6.676 12.836c-1.092-.437-1.511 1.511-1.511 1.511 0 1.747 1.747.93 1.747.93l.7-.465s.354-.437.334-.6a2.51 2.51 0 0 0-1.27-1.376z" class="cls-11" transform="translate(-1.433 -3.549)"/>
            <path id="Path_10386" d="M6.3 14.189a.524.524 0 1 1 .522.526.524.524 0 0 1-.522-.526z" class="cls-2" transform="translate(-1.749 -3.798)"/>
        </g>
    </g>
</svg>
